<?xml version="1.0" encoding="UTF-8" standalone="no"?>
<!-- Created with Inkscape (http://www.inkscape.org/) -->

<svg
   xmlns:dc="http://purl.org/dc/elements/1.1/"
   xmlns:cc="http://creativecommons.org/ns#"
   xmlns:rdf="http://www.w3.org/1999/02/22-rdf-syntax-ns#"
   xmlns:svg="http://www.w3.org/2000/svg"
   xmlns="http://www.w3.org/2000/svg"
   xmlns:sodipodi="http://sodipodi.sourceforge.net/DTD/sodipodi-0.dtd"
   xmlns:inkscape="http://www.inkscape.org/namespaces/inkscape"
   width="24"
   height="24"
   id="svg2"
   version="1.1"
   inkscape:version="0.91 r13725"
   sodipodi:docname="close_prelight.svg">
  <defs
     id="defs4" />
  <sodipodi:namedview
     id="base"
     pagecolor="#ffffff"
     bordercolor="#666666"
     borderopacity="1.0"
     inkscape:pageopacity="0.0"
     inkscape:pageshadow="2"
     inkscape:zoom="31.678384"
     inkscape:cx="3.4542438"
     inkscape:cy="22.088228"
     inkscape:document-units="px"
     inkscape:current-layer="g4092"
     showgrid="true"
     fit-margin-top="0"
     fit-margin-left="0"
     fit-margin-right="0"
     fit-margin-bottom="0"
     inkscape:window-width="1920"
     inkscape:window-height="1025"
     inkscape:window-x="0"
     inkscape:window-y="27"
     inkscape:window-maximized="1">
    <inkscape:grid
       type="xygrid"
       id="grid3339" />
  </sodipodi:namedview>
  <metadata
     id="metadata7">
    <rdf:RDF>
      <cc:Work
         rdf:about="">
        <dc:format>image/svg+xml</dc:format>
        <dc:type
           rdf:resource="http://purl.org/dc/dcmitype/StillImage" />
        <dc:title></dc:title>
      </cc:Work>
    </rdf:RDF>
  </metadata>
  <g
     inkscape:label="Layer 1"
     inkscape:groupmode="layer"
     id="layer1"
     transform="translate(-671.14288,-640.57648)">
    <g
       transform="matrix(0.1265625,0,0,-0.1265625,672.07092,663.09636)"
       inkscape:label="ink_ext_XXXXXX"
       id="g4090">
      <g
         transform="scale(0.1,0.1)"
         id="g4092">
        <path
           id="path4094"
           style="fill:#d52735;fill-opacity:1;fill-rule:evenodd;stroke:none"
           d="m 874.8264,284.09042 c 302.1555,0 547.1052,244.95019 547.1052,547.10955 0,302.16073 -244.9497,547.11043 -547.1052,547.11043 -302.16448,0 -547.115,-244.9497 -547.115,-547.11043 0,-302.15936 244.95052,-547.10955 547.115,-547.10955"
           inkscape:connector-curvature="0" />
        <path
           id="path4096"
           style="fill:#f25056;fill-opacity:1;fill-rule:evenodd;stroke:none"
           d="m 874.8264,330.62039 c 276.4544,0 500.5696,224.12006 500.5696,500.57958 0,276.46083 -224.1152,500.57603 -500.5696,500.57603 -276.46464,0 -500.57997,-224.1152 -500.57997,-500.57603 0,-276.45952 224.11533,-500.57958 500.57997,-500.57958"
           inkscape:connector-curvature="0" />
        <path
           id="path4098"
           style="fill:#9f1d2b;fill-opacity:1;fill-rule:evenodd;stroke:none"
           d="m 616.772,637.55517 451.694,451.69543 c 17.481,17.4797 46.08,17.4797 63.57,0 l 0.8358,-0.8448 c 17.4848,-17.4797 17.4848,-46.0801 0,-63.5649 L 681.1816,573.15069 c -17.4848,-17.4848 -46.08512,-17.4848 -63.5648,0 l -0.8448,0.83456 c -17.48096,17.4848 -17.48096,46.09024 0,63.56992"
           inkscape:connector-curvature="0" />
        <path
           id="path4100"
           style="fill:#9f1d2b;fill-opacity:1;fill-rule:evenodd;stroke:none"
           d="m 681.1816,1089.2506 451.6902,-451.69543 c 17.4797,-17.47968 17.4797,-46.08512 0,-63.5648 l -0.841,-0.83968 c -17.4848,-17.4848 -46.0838,-17.4848 -63.5648,0 L 616.772,1024.8409 c -17.48608,17.4848 -17.48608,46.0852 0,63.57 l 0.83968,0.8397 c 17.4848,17.4848 46.08512,17.4848 63.56992,0"
           inkscape:connector-curvature="0" />
      </g>
    </g>
  </g>
</svg>
